<svg width="601" height="417" viewBox="0 0 601 417" fill="none" xmlns="http://www.w3.org/2000/svg">
<line x1="0.851562" y1="34.1227" x2="600.852" y2="34.1227" stroke="#BFBFBF"/>
<line x1="0.851562" y1="59.1227" x2="600.852" y2="59.1227" stroke="#BFBFBF"/>
<line x1="0.851562" y1="84.1227" x2="600.852" y2="84.1227" stroke="#BFBFBF"/>
<line x1="0.851562" y1="109.123" x2="600.852" y2="109.123" stroke="#BFBFBF"/>
<line x1="0.851562" y1="134.123" x2="600.852" y2="134.123" stroke="#BFBFBF"/>
<line x1="0.851562" y1="159.123" x2="600.852" y2="159.123" stroke="#BFBFBF"/>
<line x1="0.851562" y1="184.123" x2="600.852" y2="184.123" stroke="#BFBFBF"/>
<line x1="0.851562" y1="209.123" x2="600.852" y2="209.123" stroke="#BFBFBF"/>
<line x1="0.851562" y1="234.123" x2="600.852" y2="234.123" stroke="#BFBFBF"/>
<line x1="0.851562" y1="259.123" x2="600.852" y2="259.123" stroke="#BFBFBF"/>
<line x1="0.851562" y1="284.123" x2="600.852" y2="284.123" stroke="#BFBFBF"/>
<line x1="0.851562" y1="309.123" x2="600.852" y2="309.123" stroke="#BFBFBF"/>
<line x1="0.851562" y1="334.123" x2="600.852" y2="334.123" stroke="#BFBFBF"/>
<line x1="0.851562" y1="359.123" x2="600.852" y2="359.123" stroke="#BFBFBF"/>
<line x1="0.851562" y1="384.123" x2="600.852" y2="384.123" stroke="#BFBFBF"/>
<line x1="43.9961" y1="2.18557e-08" x2="43.9961" y2="416.091" stroke="#BFBFBF"/>
<line x1="78.8877" y1="2.18557e-08" x2="78.8877" y2="416.091" stroke="#BFBFBF"/>
<line x1="113.779" y1="2.18557e-08" x2="113.779" y2="416.091" stroke="#BFBFBF"/>
<line x1="148.671" y1="2.18557e-08" x2="148.671" y2="416.091" stroke="#BFBFBF"/>
<line x1="183.562" y1="2.18557e-08" x2="183.562" y2="416.091" stroke="#BFBFBF"/>
<line x1="218.454" y1="2.18557e-08" x2="218.454" y2="416.091" stroke="#BFBFBF"/>
<line x1="253.346" y1="2.18557e-08" x2="253.346" y2="416.091" stroke="#BFBFBF"/>
<line x1="288.237" y1="2.18557e-08" x2="288.237" y2="416.091" stroke="#BFBFBF"/>
<line x1="323.129" y1="2.18557e-08" x2="323.129" y2="416.091" stroke="#BFBFBF"/>
<line x1="358.021" y1="2.18557e-08" x2="358.02" y2="416.091" stroke="#BFBFBF"/>
<line x1="392.912" y1="2.18557e-08" x2="392.912" y2="416.091" stroke="#BFBFBF"/>
<line x1="427.804" y1="2.18557e-08" x2="427.804" y2="416.091" stroke="#BFBFBF"/>
<line x1="462.695" y1="2.18557e-08" x2="462.695" y2="416.091" stroke="#BFBFBF"/>
<line x1="497.587" y1="2.18557e-08" x2="497.587" y2="416.091" stroke="#BFBFBF"/>
<line x1="532.479" y1="2.18557e-08" x2="532.479" y2="416.091" stroke="#BFBFBF"/>
<line x1="567.37" y1="2.18557e-08" x2="567.37" y2="416.091" stroke="#BFBFBF"/>
</svg>
